<mxfile host="app.diagrams.net" agent="Mozilla/5.0 (Windows NT 10.0; Win64; x64) AppleWebKit/537.36 (KHTML, like Gecko) Chrome/137.0.0.0 Safari/537.36" version="27.0.6" pages="6">
  <diagram name="IDEF0 #1" id="Z-NA0Dn66ArY0duXajFV">
    <mxGraphModel dx="1188" dy="654" grid="1" gridSize="10" guides="1" tooltips="1" connect="1" arrows="1" fold="1" page="1" pageScale="1" pageWidth="827" pageHeight="1169" math="0" shadow="0">
      <root>
        <mxCell id="0" />
        <mxCell id="1" parent="0" />
        <mxCell id="uZBYv4TpOs8FTON7Zzf1-19" value="&lt;font style=&quot;font-size: 25px;&quot;&gt;Разработка плана нагрузки&lt;/font&gt;" style="rounded=0;whiteSpace=wrap;html=1;" vertex="1" parent="1">
          <mxGeometry x="245" y="230" width="400" height="200" as="geometry" />
        </mxCell>
        <mxCell id="uZBYv4TpOs8FTON7Zzf1-20" value="" style="endArrow=classic;html=1;rounded=0;entryX=0;entryY=0.25;entryDx=0;entryDy=0;" edge="1" parent="1" target="uZBYv4TpOs8FTON7Zzf1-19">
          <mxGeometry width="50" height="50" relative="1" as="geometry">
            <mxPoint x="105" y="280" as="sourcePoint" />
            <mxPoint x="185" y="300" as="targetPoint" />
          </mxGeometry>
        </mxCell>
        <mxCell id="uZBYv4TpOs8FTON7Zzf1-21" value="" style="endArrow=classic;html=1;rounded=0;entryX=0;entryY=0.25;entryDx=0;entryDy=0;" edge="1" parent="1">
          <mxGeometry width="50" height="50" relative="1" as="geometry">
            <mxPoint x="105" y="340" as="sourcePoint" />
            <mxPoint x="245" y="340" as="targetPoint" />
          </mxGeometry>
        </mxCell>
        <mxCell id="uZBYv4TpOs8FTON7Zzf1-22" value="" style="endArrow=classic;html=1;rounded=0;entryX=0;entryY=0.25;entryDx=0;entryDy=0;" edge="1" parent="1">
          <mxGeometry width="50" height="50" relative="1" as="geometry">
            <mxPoint x="105" y="390" as="sourcePoint" />
            <mxPoint x="245" y="390" as="targetPoint" />
          </mxGeometry>
        </mxCell>
        <mxCell id="uZBYv4TpOs8FTON7Zzf1-23" value="&lt;font style=&quot;font-size: 18px;&quot;&gt;Данные преподавателей&lt;/font&gt;" style="text;html=1;align=center;verticalAlign=middle;resizable=0;points=[];autosize=1;strokeColor=none;fillColor=none;" vertex="1" parent="1">
          <mxGeometry x="5" y="230" width="230" height="40" as="geometry" />
        </mxCell>
        <mxCell id="uZBYv4TpOs8FTON7Zzf1-24" value="&lt;font style=&quot;font-size: 18px;&quot;&gt;Данные курсов&lt;/font&gt;" style="text;html=1;align=center;verticalAlign=middle;resizable=0;points=[];autosize=1;strokeColor=none;fillColor=none;" vertex="1" parent="1">
          <mxGeometry x="25" y="291" width="150" height="40" as="geometry" />
        </mxCell>
        <mxCell id="uZBYv4TpOs8FTON7Zzf1-25" value="&lt;font style=&quot;font-size: 18px;&quot;&gt;Данные семестров&lt;/font&gt;" style="text;html=1;align=center;verticalAlign=middle;resizable=0;points=[];autosize=1;strokeColor=none;fillColor=none;" vertex="1" parent="1">
          <mxGeometry x="10" y="340" width="180" height="40" as="geometry" />
        </mxCell>
        <mxCell id="uZBYv4TpOs8FTON7Zzf1-26" value="" style="endArrow=classic;html=1;rounded=0;entryX=0.15;entryY=1.006;entryDx=0;entryDy=0;entryPerimeter=0;" edge="1" parent="1" target="uZBYv4TpOs8FTON7Zzf1-19">
          <mxGeometry width="50" height="50" relative="1" as="geometry">
            <mxPoint x="305" y="540" as="sourcePoint" />
            <mxPoint x="335" y="550" as="targetPoint" />
          </mxGeometry>
        </mxCell>
        <mxCell id="uZBYv4TpOs8FTON7Zzf1-27" value="&lt;span style=&quot;font-size: 18px;&quot;&gt;Заведующий кафедрой&lt;/span&gt;" style="text;html=1;align=center;verticalAlign=middle;resizable=0;points=[];autosize=1;strokeColor=none;fillColor=none;" vertex="1" parent="1">
          <mxGeometry x="75" y="460" width="220" height="40" as="geometry" />
        </mxCell>
        <mxCell id="uZBYv4TpOs8FTON7Zzf1-28" value="" style="endArrow=classic;html=1;rounded=0;entryX=0.15;entryY=1.006;entryDx=0;entryDy=0;entryPerimeter=0;" edge="1" parent="1">
          <mxGeometry width="50" height="50" relative="1" as="geometry">
            <mxPoint x="545" y="539" as="sourcePoint" />
            <mxPoint x="545" y="430" as="targetPoint" />
          </mxGeometry>
        </mxCell>
        <mxCell id="uZBYv4TpOs8FTON7Zzf1-29" value="&lt;span style=&quot;font-size: 18px;&quot;&gt;Система планировки&lt;/span&gt;" style="text;html=1;align=center;verticalAlign=middle;resizable=0;points=[];autosize=1;strokeColor=none;fillColor=none;" vertex="1" parent="1">
          <mxGeometry x="325" y="460" width="200" height="40" as="geometry" />
        </mxCell>
        <mxCell id="uZBYv4TpOs8FTON7Zzf1-30" value="" style="endArrow=classic;html=1;rounded=0;entryX=0.125;entryY=-0.008;entryDx=0;entryDy=0;entryPerimeter=0;" edge="1" parent="1">
          <mxGeometry width="50" height="50" relative="1" as="geometry">
            <mxPoint x="364.99999999999994" y="120" as="sourcePoint" />
            <mxPoint x="364.99999999999994" y="228.39999999999986" as="targetPoint" />
          </mxGeometry>
        </mxCell>
        <mxCell id="uZBYv4TpOs8FTON7Zzf1-32" value="&lt;font style=&quot;font-size: 18px;&quot;&gt;Правила&amp;nbsp;&lt;/font&gt;&lt;div&gt;&lt;font style=&quot;font-size: 18px;&quot;&gt;распределения&lt;/font&gt;&lt;/div&gt;" style="text;html=1;align=center;verticalAlign=middle;resizable=0;points=[];autosize=1;strokeColor=none;fillColor=none;" vertex="1" parent="1">
          <mxGeometry x="185" y="140" width="150" height="60" as="geometry" />
        </mxCell>
        <mxCell id="uZBYv4TpOs8FTON7Zzf1-33" value="" style="endArrow=classic;html=1;rounded=0;entryX=0.125;entryY=-0.008;entryDx=0;entryDy=0;entryPerimeter=0;" edge="1" parent="1">
          <mxGeometry width="50" height="50" relative="1" as="geometry">
            <mxPoint x="535" y="122" as="sourcePoint" />
            <mxPoint x="535" y="230" as="targetPoint" />
          </mxGeometry>
        </mxCell>
        <mxCell id="uZBYv4TpOs8FTON7Zzf1-34" value="&lt;span style=&quot;font-size: 18px;&quot;&gt;Устав&amp;nbsp;&lt;/span&gt;&lt;div&gt;&lt;span style=&quot;font-size: 18px;&quot;&gt;учебного&amp;nbsp;&lt;/span&gt;&lt;/div&gt;&lt;div&gt;&lt;span style=&quot;font-size: 18px;&quot;&gt;заведения&lt;/span&gt;&lt;/div&gt;" style="text;html=1;align=center;verticalAlign=middle;resizable=0;points=[];autosize=1;strokeColor=none;fillColor=none;" vertex="1" parent="1">
          <mxGeometry x="404.99999999999994" y="130" width="110" height="80" as="geometry" />
        </mxCell>
        <mxCell id="uZBYv4TpOs8FTON7Zzf1-37" value="" style="endArrow=classic;html=1;rounded=0;entryX=0;entryY=0.25;entryDx=0;entryDy=0;" edge="1" parent="1">
          <mxGeometry width="50" height="50" relative="1" as="geometry">
            <mxPoint x="648" y="290" as="sourcePoint" />
            <mxPoint x="788" y="290" as="targetPoint" />
          </mxGeometry>
        </mxCell>
        <mxCell id="uZBYv4TpOs8FTON7Zzf1-38" value="" style="endArrow=classic;html=1;rounded=0;entryX=0;entryY=0.25;entryDx=0;entryDy=0;" edge="1" parent="1">
          <mxGeometry width="50" height="50" relative="1" as="geometry">
            <mxPoint x="648" y="350" as="sourcePoint" />
            <mxPoint x="788" y="350" as="targetPoint" />
          </mxGeometry>
        </mxCell>
        <mxCell id="uZBYv4TpOs8FTON7Zzf1-39" value="&lt;font style=&quot;font-size: 18px;&quot;&gt;Рабочая нагрузка&amp;nbsp;&lt;/font&gt;&lt;div&gt;&lt;font style=&quot;font-size: 18px;&quot;&gt;преподавателей&lt;/font&gt;&lt;/div&gt;" style="text;html=1;align=center;verticalAlign=middle;resizable=0;points=[];autosize=1;strokeColor=none;fillColor=none;" vertex="1" parent="1">
          <mxGeometry x="644" y="231" width="180" height="60" as="geometry" />
        </mxCell>
        <mxCell id="uZBYv4TpOs8FTON7Zzf1-40" value="&lt;font style=&quot;font-size: 18px;&quot;&gt;Отчеты&lt;/font&gt;" style="text;html=1;align=center;verticalAlign=middle;resizable=0;points=[];autosize=1;strokeColor=none;fillColor=none;" vertex="1" parent="1">
          <mxGeometry x="655" y="302" width="90" height="40" as="geometry" />
        </mxCell>
        <mxCell id="uZBYv4TpOs8FTON7Zzf1-41" value="A0" style="text;html=1;align=center;verticalAlign=middle;resizable=0;points=[];autosize=1;strokeColor=none;fillColor=none;" vertex="1" parent="1">
          <mxGeometry x="594" y="390" width="40" height="30" as="geometry" />
        </mxCell>
      </root>
    </mxGraphModel>
  </diagram>
  <diagram id="CFaUkdqT-VyxxcH7EAE3" name="IDEF0 #2">
    <mxGraphModel dx="1678" dy="924" grid="1" gridSize="10" guides="1" tooltips="1" connect="1" arrows="1" fold="1" page="1" pageScale="1" pageWidth="827" pageHeight="1169" math="0" shadow="0">
      <root>
        <mxCell id="0" />
        <mxCell id="1" parent="0" />
        <mxCell id="hcZBArftGjYI7huZLx5y-1" value="&lt;font style=&quot;font-size: 25px;&quot;&gt;Ввод и редактирование данных преподавателей и курсов&lt;/font&gt;" style="rounded=0;whiteSpace=wrap;html=1;" vertex="1" parent="1">
          <mxGeometry x="250" y="275" width="400" height="200" as="geometry" />
        </mxCell>
        <mxCell id="hcZBArftGjYI7huZLx5y-2" value="" style="endArrow=classic;html=1;rounded=0;entryX=0;entryY=0.25;entryDx=0;entryDy=0;" edge="1" parent="1" target="hcZBArftGjYI7huZLx5y-1">
          <mxGeometry width="50" height="50" relative="1" as="geometry">
            <mxPoint x="110" y="325" as="sourcePoint" />
            <mxPoint x="190" y="345" as="targetPoint" />
          </mxGeometry>
        </mxCell>
        <mxCell id="hcZBArftGjYI7huZLx5y-3" value="" style="endArrow=classic;html=1;rounded=0;entryX=0;entryY=0.25;entryDx=0;entryDy=0;" edge="1" parent="1">
          <mxGeometry width="50" height="50" relative="1" as="geometry">
            <mxPoint x="110" y="435" as="sourcePoint" />
            <mxPoint x="250" y="435" as="targetPoint" />
          </mxGeometry>
        </mxCell>
        <mxCell id="hcZBArftGjYI7huZLx5y-5" value="&lt;font style=&quot;font-size: 18px;&quot;&gt;Данные преподавателей&lt;/font&gt;" style="text;html=1;align=center;verticalAlign=middle;resizable=0;points=[];autosize=1;strokeColor=none;fillColor=none;" vertex="1" parent="1">
          <mxGeometry x="10" y="275" width="230" height="40" as="geometry" />
        </mxCell>
        <mxCell id="hcZBArftGjYI7huZLx5y-6" value="&lt;font style=&quot;font-size: 18px;&quot;&gt;Данные курсов&lt;/font&gt;" style="text;html=1;align=center;verticalAlign=middle;resizable=0;points=[];autosize=1;strokeColor=none;fillColor=none;" vertex="1" parent="1">
          <mxGeometry x="40" y="387" width="150" height="40" as="geometry" />
        </mxCell>
        <mxCell id="hcZBArftGjYI7huZLx5y-8" value="" style="endArrow=classic;html=1;rounded=0;entryX=0.19;entryY=0.985;entryDx=0;entryDy=0;entryPerimeter=0;" edge="1" parent="1" target="hcZBArftGjYI7huZLx5y-1">
          <mxGeometry width="50" height="50" relative="1" as="geometry">
            <mxPoint x="320" y="1070" as="sourcePoint" />
            <mxPoint x="320" y="961.2" as="targetPoint" />
          </mxGeometry>
        </mxCell>
        <mxCell id="hcZBArftGjYI7huZLx5y-9" value="&lt;span style=&quot;font-size: 18px;&quot;&gt;Заведующий кафедрой&lt;/span&gt;" style="text;html=1;align=center;verticalAlign=middle;resizable=0;points=[];autosize=1;strokeColor=none;fillColor=none;" vertex="1" parent="1">
          <mxGeometry x="230" y="1080" width="220" height="40" as="geometry" />
        </mxCell>
        <mxCell id="hcZBArftGjYI7huZLx5y-10" value="" style="endArrow=classic;html=1;rounded=0;entryX=0.805;entryY=0.99;entryDx=0;entryDy=0;entryPerimeter=0;" edge="1" parent="1" target="hcZBArftGjYI7huZLx5y-1">
          <mxGeometry width="50" height="50" relative="1" as="geometry">
            <mxPoint x="570" y="1060" as="sourcePoint" />
            <mxPoint x="560" y="960" as="targetPoint" />
          </mxGeometry>
        </mxCell>
        <mxCell id="hcZBArftGjYI7huZLx5y-11" value="&lt;span style=&quot;font-size: 18px;&quot;&gt;Система планировки&lt;/span&gt;" style="text;html=1;align=center;verticalAlign=middle;resizable=0;points=[];autosize=1;strokeColor=none;fillColor=none;" vertex="1" parent="1">
          <mxGeometry x="470" y="1080" width="200" height="40" as="geometry" />
        </mxCell>
        <mxCell id="8AGTsJgVUKjS2iawNdRX-3" style="edgeStyle=orthogonalEdgeStyle;rounded=0;orthogonalLoop=1;jettySize=auto;html=1;entryX=0.25;entryY=0;entryDx=0;entryDy=0;" edge="1" parent="1" source="hcZBArftGjYI7huZLx5y-13" target="W2gkp9A4nI5NMFQp9HgT-1">
          <mxGeometry relative="1" as="geometry">
            <Array as="points">
              <mxPoint x="385" y="180" />
              <mxPoint x="1130" y="180" />
            </Array>
          </mxGeometry>
        </mxCell>
        <mxCell id="hcZBArftGjYI7huZLx5y-13" value="&lt;font style=&quot;font-size: 18px;&quot;&gt;Правила&amp;nbsp;&lt;/font&gt;&lt;div&gt;&lt;font style=&quot;font-size: 18px;&quot;&gt;распределения&lt;/font&gt;&lt;/div&gt;" style="text;html=1;align=center;verticalAlign=middle;resizable=0;points=[];autosize=1;strokeColor=none;fillColor=none;" vertex="1" parent="1">
          <mxGeometry x="310" y="30" width="150" height="60" as="geometry" />
        </mxCell>
        <mxCell id="hcZBArftGjYI7huZLx5y-15" value="&lt;span style=&quot;font-size: 18px;&quot;&gt;Устав&amp;nbsp;&lt;/span&gt;&lt;div&gt;&lt;span style=&quot;font-size: 18px;&quot;&gt;учебного&amp;nbsp;&lt;/span&gt;&lt;/div&gt;&lt;div&gt;&lt;span style=&quot;font-size: 18px;&quot;&gt;заведения&lt;/span&gt;&lt;/div&gt;" style="text;html=1;align=center;verticalAlign=middle;resizable=0;points=[];autosize=1;strokeColor=none;fillColor=none;" vertex="1" parent="1">
          <mxGeometry x="529" y="20" width="110" height="80" as="geometry" />
        </mxCell>
        <mxCell id="hcZBArftGjYI7huZLx5y-20" value="A1" style="text;html=1;align=center;verticalAlign=middle;resizable=0;points=[];autosize=1;strokeColor=none;fillColor=none;" vertex="1" parent="1">
          <mxGeometry x="599" y="435" width="40" height="30" as="geometry" />
        </mxCell>
        <mxCell id="8AGTsJgVUKjS2iawNdRX-13" style="edgeStyle=orthogonalEdgeStyle;rounded=0;orthogonalLoop=1;jettySize=auto;html=1;entryX=0;entryY=0.5;entryDx=0;entryDy=0;" edge="1" parent="1" source="W2gkp9A4nI5NMFQp9HgT-1" target="8AGTsJgVUKjS2iawNdRX-11">
          <mxGeometry relative="1" as="geometry" />
        </mxCell>
        <mxCell id="W2gkp9A4nI5NMFQp9HgT-1" value="&lt;font style=&quot;font-size: 25px;&quot;&gt;Распределение нагрузки&lt;/font&gt;" style="rounded=0;whiteSpace=wrap;html=1;" vertex="1" parent="1">
          <mxGeometry x="1030" y="500" width="400" height="200" as="geometry" />
        </mxCell>
        <mxCell id="W2gkp9A4nI5NMFQp9HgT-2" value="A2" style="text;html=1;align=center;verticalAlign=middle;resizable=0;points=[];autosize=1;strokeColor=none;fillColor=none;" vertex="1" parent="1">
          <mxGeometry x="1380" y="660" width="40" height="30" as="geometry" />
        </mxCell>
        <mxCell id="W2gkp9A4nI5NMFQp9HgT-3" value="" style="endArrow=classic;html=1;rounded=0;entryX=0;entryY=0.5;entryDx=0;entryDy=0;" edge="1" parent="1" source="hcZBArftGjYI7huZLx5y-1" target="W2gkp9A4nI5NMFQp9HgT-1">
          <mxGeometry width="50" height="50" relative="1" as="geometry">
            <mxPoint x="810" y="490" as="sourcePoint" />
            <mxPoint x="860" y="440" as="targetPoint" />
            <Array as="points">
              <mxPoint x="840" y="375" />
              <mxPoint x="840" y="600" />
            </Array>
          </mxGeometry>
        </mxCell>
        <mxCell id="W2gkp9A4nI5NMFQp9HgT-4" value="&lt;font style=&quot;font-size: 18px;&quot;&gt;Сохранённые данные&lt;/font&gt;&lt;div&gt;&lt;font style=&quot;font-size: 18px;&quot;&gt;о преподавателях и курсов&lt;/font&gt;&lt;/div&gt;" style="text;html=1;align=center;verticalAlign=middle;resizable=0;points=[];autosize=1;strokeColor=none;fillColor=none;" vertex="1" parent="1">
          <mxGeometry x="650" y="315" width="250" height="60" as="geometry" />
        </mxCell>
        <mxCell id="8AGTsJgVUKjS2iawNdRX-2" style="edgeStyle=orthogonalEdgeStyle;rounded=0;orthogonalLoop=1;jettySize=auto;html=1;" edge="1" parent="1" source="8AGTsJgVUKjS2iawNdRX-1" target="W2gkp9A4nI5NMFQp9HgT-1">
          <mxGeometry relative="1" as="geometry" />
        </mxCell>
        <mxCell id="8AGTsJgVUKjS2iawNdRX-1" value="&lt;font style=&quot;font-size: 18px;&quot;&gt;Алгоритм распределения нагрузки&lt;/font&gt;" style="text;html=1;align=center;verticalAlign=middle;resizable=0;points=[];autosize=1;strokeColor=none;fillColor=none;" vertex="1" parent="1">
          <mxGeometry x="1075" y="1070" width="310" height="40" as="geometry" />
        </mxCell>
        <mxCell id="8AGTsJgVUKjS2iawNdRX-5" style="edgeStyle=orthogonalEdgeStyle;rounded=0;orthogonalLoop=1;jettySize=auto;html=1;entryX=0.338;entryY=0.025;entryDx=0;entryDy=0;entryPerimeter=0;" edge="1" parent="1" source="hcZBArftGjYI7huZLx5y-13" target="hcZBArftGjYI7huZLx5y-1">
          <mxGeometry relative="1" as="geometry" />
        </mxCell>
        <mxCell id="8AGTsJgVUKjS2iawNdRX-7" style="edgeStyle=orthogonalEdgeStyle;rounded=0;orthogonalLoop=1;jettySize=auto;html=1;entryX=0.835;entryY=0.013;entryDx=0;entryDy=0;entryPerimeter=0;" edge="1" parent="1" source="hcZBArftGjYI7huZLx5y-15" target="hcZBArftGjYI7huZLx5y-1">
          <mxGeometry relative="1" as="geometry" />
        </mxCell>
        <mxCell id="8AGTsJgVUKjS2iawNdRX-8" value="&lt;font style=&quot;font-size: 18px;&quot;&gt;Факультетская политика&lt;/font&gt;" style="text;html=1;align=center;verticalAlign=middle;resizable=0;points=[];autosize=1;strokeColor=none;fillColor=none;" vertex="1" parent="1">
          <mxGeometry x="1125" y="23" width="230" height="40" as="geometry" />
        </mxCell>
        <mxCell id="8AGTsJgVUKjS2iawNdRX-10" style="edgeStyle=orthogonalEdgeStyle;rounded=0;orthogonalLoop=1;jettySize=auto;html=1;entryX=0.524;entryY=-0.002;entryDx=0;entryDy=0;entryPerimeter=0;" edge="1" parent="1" source="8AGTsJgVUKjS2iawNdRX-8" target="W2gkp9A4nI5NMFQp9HgT-1">
          <mxGeometry relative="1" as="geometry" />
        </mxCell>
        <mxCell id="P82h6epUWf69QQ5xlPLp-1" style="edgeStyle=orthogonalEdgeStyle;rounded=0;orthogonalLoop=1;jettySize=auto;html=1;" edge="1" parent="1" source="8AGTsJgVUKjS2iawNdRX-11">
          <mxGeometry relative="1" as="geometry">
            <mxPoint x="2290" y="850" as="targetPoint" />
          </mxGeometry>
        </mxCell>
        <mxCell id="8AGTsJgVUKjS2iawNdRX-11" value="&lt;font style=&quot;font-size: 25px;&quot;&gt;Генерация отчётов по нагрузке&lt;/font&gt;" style="rounded=0;whiteSpace=wrap;html=1;" vertex="1" parent="1">
          <mxGeometry x="1770" y="750" width="400" height="200" as="geometry" />
        </mxCell>
        <mxCell id="8AGTsJgVUKjS2iawNdRX-12" value="A3" style="text;html=1;align=center;verticalAlign=middle;resizable=0;points=[];autosize=1;strokeColor=none;fillColor=none;" vertex="1" parent="1">
          <mxGeometry x="2120" y="910" width="40" height="30" as="geometry" />
        </mxCell>
        <mxCell id="8AGTsJgVUKjS2iawNdRX-14" value="&lt;span style=&quot;font-size: 18px;&quot;&gt;Распределённая нагрузка&lt;/span&gt;" style="text;html=1;align=center;verticalAlign=middle;resizable=0;points=[];autosize=1;strokeColor=none;fillColor=none;" vertex="1" parent="1">
          <mxGeometry x="1440" y="550" width="240" height="40" as="geometry" />
        </mxCell>
        <mxCell id="8AGTsJgVUKjS2iawNdRX-15" value="&lt;font style=&quot;font-size: 18px;&quot;&gt;Модуль отчётности&lt;/font&gt;" style="text;html=1;align=center;verticalAlign=middle;resizable=0;points=[];autosize=1;strokeColor=none;fillColor=none;" vertex="1" parent="1">
          <mxGeometry x="1890" y="1070" width="190" height="40" as="geometry" />
        </mxCell>
        <mxCell id="8AGTsJgVUKjS2iawNdRX-17" style="edgeStyle=orthogonalEdgeStyle;rounded=0;orthogonalLoop=1;jettySize=auto;html=1;entryX=0.54;entryY=1.005;entryDx=0;entryDy=0;entryPerimeter=0;" edge="1" parent="1" source="8AGTsJgVUKjS2iawNdRX-15" target="8AGTsJgVUKjS2iawNdRX-11">
          <mxGeometry relative="1" as="geometry">
            <Array as="points">
              <mxPoint x="1986" y="1040" />
              <mxPoint x="1986" y="1040" />
            </Array>
          </mxGeometry>
        </mxCell>
        <mxCell id="8AGTsJgVUKjS2iawNdRX-18" value="&lt;font style=&quot;font-size: 18px;&quot;&gt;Политика отчётности&lt;/font&gt;" style="text;html=1;align=center;verticalAlign=middle;resizable=0;points=[];autosize=1;strokeColor=none;fillColor=none;" vertex="1" parent="1">
          <mxGeometry x="1791" y="40" width="200" height="40" as="geometry" />
        </mxCell>
        <mxCell id="8AGTsJgVUKjS2iawNdRX-19" value="&lt;font style=&quot;font-size: 18px;&quot;&gt;Форматы отчётов&lt;/font&gt;" style="text;html=1;align=center;verticalAlign=middle;resizable=0;points=[];autosize=1;strokeColor=none;fillColor=none;" vertex="1" parent="1">
          <mxGeometry x="2009" y="40" width="170" height="40" as="geometry" />
        </mxCell>
        <mxCell id="8AGTsJgVUKjS2iawNdRX-20" style="edgeStyle=orthogonalEdgeStyle;rounded=0;orthogonalLoop=1;jettySize=auto;html=1;entryX=0.303;entryY=0;entryDx=0;entryDy=0;entryPerimeter=0;" edge="1" parent="1" source="8AGTsJgVUKjS2iawNdRX-18" target="8AGTsJgVUKjS2iawNdRX-11">
          <mxGeometry relative="1" as="geometry" />
        </mxCell>
        <mxCell id="8AGTsJgVUKjS2iawNdRX-21" style="edgeStyle=orthogonalEdgeStyle;rounded=0;orthogonalLoop=1;jettySize=auto;html=1;entryX=0.81;entryY=0;entryDx=0;entryDy=0;entryPerimeter=0;" edge="1" parent="1" source="8AGTsJgVUKjS2iawNdRX-19" target="8AGTsJgVUKjS2iawNdRX-11">
          <mxGeometry relative="1" as="geometry" />
        </mxCell>
        <mxCell id="P82h6epUWf69QQ5xlPLp-2" value="&lt;font style=&quot;font-size: 18px;&quot;&gt;Отчёты&lt;/font&gt;" style="text;html=1;align=center;verticalAlign=middle;resizable=0;points=[];autosize=1;strokeColor=none;fillColor=none;" vertex="1" parent="1">
          <mxGeometry x="2300" y="830" width="90" height="40" as="geometry" />
        </mxCell>
      </root>
    </mxGraphModel>
  </diagram>
  <diagram id="iqx6l4DmT38isYc7wKkX" name="IDEF0 #3">
    <mxGraphModel dx="3996" dy="1744" grid="1" gridSize="10" guides="1" tooltips="1" connect="1" arrows="1" fold="1" page="1" pageScale="1" pageWidth="827" pageHeight="1169" math="0" shadow="0">
      <root>
        <mxCell id="0" />
        <mxCell id="1" parent="0" />
        <mxCell id="s4t_JF43oJ4bLATen3ak-7" style="edgeStyle=orthogonalEdgeStyle;rounded=0;orthogonalLoop=1;jettySize=auto;html=1;entryX=0;entryY=0.5;entryDx=0;entryDy=0;" edge="1" parent="1" source="NJwwsomR2bgMxO0LfJhA-2" target="s4t_JF43oJ4bLATen3ak-6">
          <mxGeometry relative="1" as="geometry" />
        </mxCell>
        <mxCell id="NJwwsomR2bgMxO0LfJhA-2" value="&lt;span style=&quot;font-size: 25px;&quot;&gt;Проверка доступных часов преподавателей&lt;/span&gt;" style="rounded=0;whiteSpace=wrap;html=1;" vertex="1" parent="1">
          <mxGeometry x="260" y="280" width="400" height="200" as="geometry" />
        </mxCell>
        <mxCell id="NJwwsomR2bgMxO0LfJhA-3" value="A2.1" style="text;html=1;align=center;verticalAlign=middle;resizable=0;points=[];autosize=1;strokeColor=none;fillColor=none;" vertex="1" parent="1">
          <mxGeometry x="605" y="440" width="50" height="30" as="geometry" />
        </mxCell>
        <mxCell id="NJwwsomR2bgMxO0LfJhA-4" value="&lt;font style=&quot;font-size: 18px;&quot;&gt;Подсистема анализа загруженности преподавателей&lt;/font&gt;" style="text;html=1;align=center;verticalAlign=middle;resizable=0;points=[];autosize=1;strokeColor=none;fillColor=none;" vertex="1" parent="1">
          <mxGeometry x="260" y="1090" width="470" height="40" as="geometry" />
        </mxCell>
        <mxCell id="NJwwsomR2bgMxO0LfJhA-5" style="edgeStyle=orthogonalEdgeStyle;rounded=0;orthogonalLoop=1;jettySize=auto;html=1;entryX=0.54;entryY=1.005;entryDx=0;entryDy=0;entryPerimeter=0;" edge="1" parent="1" source="NJwwsomR2bgMxO0LfJhA-4" target="NJwwsomR2bgMxO0LfJhA-2">
          <mxGeometry relative="1" as="geometry">
            <Array as="points">
              <mxPoint x="476" y="560" />
              <mxPoint x="476" y="560" />
            </Array>
          </mxGeometry>
        </mxCell>
        <mxCell id="RNOQg40stvWi-LAkk3F0-1" style="edgeStyle=orthogonalEdgeStyle;rounded=0;orthogonalLoop=1;jettySize=auto;html=1;entryX=0;entryY=0.5;entryDx=0;entryDy=0;" edge="1" parent="1" source="NJwwsomR2bgMxO0LfJhA-7" target="NJwwsomR2bgMxO0LfJhA-2">
          <mxGeometry relative="1" as="geometry" />
        </mxCell>
        <mxCell id="NJwwsomR2bgMxO0LfJhA-7" value="&lt;font style=&quot;font-size: 18px;&quot;&gt;Сохранённые данные&lt;/font&gt;&lt;div&gt;&lt;font style=&quot;font-size: 18px;&quot;&gt;о преподавателях и курсов&lt;/font&gt;&lt;/div&gt;" style="text;html=1;align=center;verticalAlign=middle;resizable=0;points=[];autosize=1;strokeColor=none;fillColor=none;" vertex="1" parent="1">
          <mxGeometry x="-130" y="350" width="250" height="60" as="geometry" />
        </mxCell>
        <mxCell id="s4t_JF43oJ4bLATen3ak-1" value="&lt;span style=&quot;font-size: 18px;&quot;&gt;Правила расчёта допустимой нагрузки&lt;/span&gt;" style="text;html=1;align=center;verticalAlign=middle;resizable=0;points=[];autosize=1;strokeColor=none;fillColor=none;" vertex="1" parent="1">
          <mxGeometry x="150" y="20" width="350" height="40" as="geometry" />
        </mxCell>
        <mxCell id="s4t_JF43oJ4bLATen3ak-2" value="&lt;span style=&quot;font-size: 18px;&quot;&gt;Устав учебного нагрузки&lt;/span&gt;" style="text;html=1;align=center;verticalAlign=middle;resizable=0;points=[];autosize=1;strokeColor=none;fillColor=none;" vertex="1" parent="1">
          <mxGeometry x="520" y="20" width="230" height="40" as="geometry" />
        </mxCell>
        <mxCell id="s4t_JF43oJ4bLATen3ak-3" style="edgeStyle=orthogonalEdgeStyle;rounded=0;orthogonalLoop=1;jettySize=auto;html=1;entryX=0.165;entryY=0.009;entryDx=0;entryDy=0;entryPerimeter=0;" edge="1" parent="1" source="s4t_JF43oJ4bLATen3ak-1" target="NJwwsomR2bgMxO0LfJhA-2">
          <mxGeometry relative="1" as="geometry" />
        </mxCell>
        <mxCell id="s4t_JF43oJ4bLATen3ak-4" style="edgeStyle=orthogonalEdgeStyle;rounded=0;orthogonalLoop=1;jettySize=auto;html=1;entryX=0.938;entryY=0;entryDx=0;entryDy=0;entryPerimeter=0;" edge="1" parent="1" source="s4t_JF43oJ4bLATen3ak-2" target="NJwwsomR2bgMxO0LfJhA-2">
          <mxGeometry relative="1" as="geometry" />
        </mxCell>
        <mxCell id="s4t_JF43oJ4bLATen3ak-5" value="&lt;span style=&quot;font-size: 18px;&quot;&gt;Список доступных преподавателей&lt;/span&gt;&lt;div&gt;&lt;span style=&quot;font-size: 18px;&quot;&gt;с актуальным количеством часов&lt;/span&gt;&lt;/div&gt;" style="text;html=1;align=center;verticalAlign=middle;resizable=0;points=[];autosize=1;strokeColor=none;fillColor=none;" vertex="1" parent="1">
          <mxGeometry x="670" y="300" width="320" height="60" as="geometry" />
        </mxCell>
        <mxCell id="s4t_JF43oJ4bLATen3ak-18" style="edgeStyle=orthogonalEdgeStyle;rounded=0;orthogonalLoop=1;jettySize=auto;html=1;entryX=0;entryY=0.5;entryDx=0;entryDy=0;" edge="1" parent="1" source="s4t_JF43oJ4bLATen3ak-6" target="s4t_JF43oJ4bLATen3ak-17">
          <mxGeometry relative="1" as="geometry" />
        </mxCell>
        <mxCell id="s4t_JF43oJ4bLATen3ak-6" value="&lt;span style=&quot;font-size: 25px;&quot;&gt;Назначение преподавателей на курсы и группы&lt;/span&gt;" style="rounded=0;whiteSpace=wrap;html=1;" vertex="1" parent="1">
          <mxGeometry x="1100" y="460" width="400" height="200" as="geometry" />
        </mxCell>
        <mxCell id="s4t_JF43oJ4bLATen3ak-9" style="edgeStyle=orthogonalEdgeStyle;rounded=0;orthogonalLoop=1;jettySize=auto;html=1;" edge="1" parent="1" source="s4t_JF43oJ4bLATen3ak-8" target="s4t_JF43oJ4bLATen3ak-6">
          <mxGeometry relative="1" as="geometry" />
        </mxCell>
        <mxCell id="s4t_JF43oJ4bLATen3ak-8" value="&lt;font style=&quot;font-size: 18px;&quot;&gt;Логика назначения преподавателей на курсы&lt;/font&gt;&lt;div&gt;&lt;font style=&quot;font-size: 18px;&quot;&gt;с учётом их доступности, квалификации и предпочтений&lt;/font&gt;&lt;/div&gt;" style="text;html=1;align=center;verticalAlign=middle;resizable=0;points=[];autosize=1;strokeColor=none;fillColor=none;" vertex="1" parent="1">
          <mxGeometry x="1050" y="1070" width="500" height="60" as="geometry" />
        </mxCell>
        <mxCell id="s4t_JF43oJ4bLATen3ak-11" value="&lt;font style=&quot;font-size: 18px;&quot;&gt;Алгоритм распределения нагрузки&lt;/font&gt;" style="text;html=1;align=center;verticalAlign=middle;resizable=0;points=[];autosize=1;strokeColor=none;fillColor=none;" vertex="1" parent="1">
          <mxGeometry x="1020" y="20" width="310" height="40" as="geometry" />
        </mxCell>
        <mxCell id="s4t_JF43oJ4bLATen3ak-12" style="edgeStyle=orthogonalEdgeStyle;rounded=0;orthogonalLoop=1;jettySize=auto;html=1;entryX=0.188;entryY=0;entryDx=0;entryDy=0;entryPerimeter=0;" edge="1" parent="1" source="s4t_JF43oJ4bLATen3ak-11" target="s4t_JF43oJ4bLATen3ak-6">
          <mxGeometry relative="1" as="geometry" />
        </mxCell>
        <mxCell id="s4t_JF43oJ4bLATen3ak-14" style="edgeStyle=orthogonalEdgeStyle;rounded=0;orthogonalLoop=1;jettySize=auto;html=1;" edge="1" parent="1" source="s4t_JF43oJ4bLATen3ak-13">
          <mxGeometry relative="1" as="geometry">
            <mxPoint x="1465" y="460" as="targetPoint" />
          </mxGeometry>
        </mxCell>
        <mxCell id="s4t_JF43oJ4bLATen3ak-13" value="&lt;font style=&quot;font-size: 18px;&quot;&gt;Факультетская политика&lt;/font&gt;" style="text;html=1;align=center;verticalAlign=middle;resizable=0;points=[];autosize=1;strokeColor=none;fillColor=none;" vertex="1" parent="1">
          <mxGeometry x="1350" y="20" width="230" height="40" as="geometry" />
        </mxCell>
        <mxCell id="s4t_JF43oJ4bLATen3ak-16" value="A2.2" style="text;html=1;align=center;verticalAlign=middle;resizable=0;points=[];autosize=1;strokeColor=none;fillColor=none;" vertex="1" parent="1">
          <mxGeometry x="1440" y="620" width="50" height="30" as="geometry" />
        </mxCell>
        <mxCell id="s4t_JF43oJ4bLATen3ak-17" value="&lt;font style=&quot;font-size: 25px;&quot;&gt;Сохранение распределения в систему&lt;/font&gt;" style="rounded=0;whiteSpace=wrap;html=1;" vertex="1" parent="1">
          <mxGeometry x="1740" y="640" width="400" height="200" as="geometry" />
        </mxCell>
        <mxCell id="s4t_JF43oJ4bLATen3ak-19" value="&lt;font style=&quot;font-size: 18px;&quot;&gt;Предварительное&lt;/font&gt;&lt;div&gt;&lt;font style=&quot;font-size: 18px;&quot;&gt;распределение нагрузки&lt;/font&gt;&lt;/div&gt;" style="text;html=1;align=center;verticalAlign=middle;resizable=0;points=[];autosize=1;strokeColor=none;fillColor=none;" vertex="1" parent="1">
          <mxGeometry x="1510" y="490" width="230" height="60" as="geometry" />
        </mxCell>
        <mxCell id="s4t_JF43oJ4bLATen3ak-20" value="&lt;font style=&quot;font-size: 18px;&quot;&gt;Модуль сохранения в базу данных&lt;/font&gt;" style="text;html=1;align=center;verticalAlign=middle;resizable=0;points=[];autosize=1;strokeColor=none;fillColor=none;" vertex="1" parent="1">
          <mxGeometry x="1800" y="1080" width="310" height="40" as="geometry" />
        </mxCell>
        <mxCell id="s4t_JF43oJ4bLATen3ak-21" style="edgeStyle=orthogonalEdgeStyle;rounded=0;orthogonalLoop=1;jettySize=auto;html=1;entryX=0.538;entryY=1;entryDx=0;entryDy=0;entryPerimeter=0;" edge="1" parent="1" source="s4t_JF43oJ4bLATen3ak-20" target="s4t_JF43oJ4bLATen3ak-17">
          <mxGeometry relative="1" as="geometry" />
        </mxCell>
        <mxCell id="9OP-jzHzbjgV7A46yYYM-1" value="&lt;span style=&quot;font-size: 18px;&quot;&gt;Политика безопасности данных&lt;/span&gt;" style="text;html=1;align=center;verticalAlign=middle;resizable=0;points=[];autosize=1;strokeColor=none;fillColor=none;" vertex="1" parent="1">
          <mxGeometry x="1690" y="20" width="290" height="40" as="geometry" />
        </mxCell>
        <mxCell id="9OP-jzHzbjgV7A46yYYM-4" style="edgeStyle=orthogonalEdgeStyle;rounded=0;orthogonalLoop=1;jettySize=auto;html=1;entryX=0.864;entryY=0.002;entryDx=0;entryDy=0;entryPerimeter=0;" edge="1" parent="1" source="9OP-jzHzbjgV7A46yYYM-2" target="s4t_JF43oJ4bLATen3ak-17">
          <mxGeometry relative="1" as="geometry">
            <mxPoint x="2070" y="380" as="targetPoint" />
          </mxGeometry>
        </mxCell>
        <mxCell id="9OP-jzHzbjgV7A46yYYM-2" value="&lt;span style=&quot;font-size: 18px;&quot;&gt;Правила отката&lt;/span&gt;&lt;div&gt;&lt;span style=&quot;font-size: 18px;&quot;&gt;истории изменений&lt;/span&gt;&lt;/div&gt;" style="text;html=1;align=center;verticalAlign=middle;resizable=0;points=[];autosize=1;strokeColor=none;fillColor=none;" vertex="1" parent="1">
          <mxGeometry x="1990" y="10" width="190" height="60" as="geometry" />
        </mxCell>
        <mxCell id="9OP-jzHzbjgV7A46yYYM-3" style="edgeStyle=orthogonalEdgeStyle;rounded=0;orthogonalLoop=1;jettySize=auto;html=1;entryX=0.238;entryY=0.004;entryDx=0;entryDy=0;entryPerimeter=0;" edge="1" parent="1" source="9OP-jzHzbjgV7A46yYYM-1" target="s4t_JF43oJ4bLATen3ak-17">
          <mxGeometry relative="1" as="geometry" />
        </mxCell>
        <mxCell id="9OP-jzHzbjgV7A46yYYM-5" value="A2.3" style="text;html=1;align=center;verticalAlign=middle;resizable=0;points=[];autosize=1;strokeColor=none;fillColor=none;" vertex="1" parent="1">
          <mxGeometry x="2080" y="800" width="50" height="30" as="geometry" />
        </mxCell>
        <mxCell id="GQt8E_W3v2VuGSWoqwXT-1" value="&lt;span style=&quot;font-size: 18px;&quot;&gt;Записанные данные&lt;/span&gt;&lt;div&gt;&lt;span style=&quot;font-size: 18px;&quot;&gt;в таблицу&lt;/span&gt;&lt;/div&gt;" style="text;html=1;align=center;verticalAlign=middle;resizable=0;points=[];autosize=1;strokeColor=none;fillColor=none;" vertex="1" parent="1">
          <mxGeometry x="2266" y="710" width="190" height="60" as="geometry" />
        </mxCell>
        <mxCell id="GQt8E_W3v2VuGSWoqwXT-3" style="edgeStyle=orthogonalEdgeStyle;rounded=0;orthogonalLoop=1;jettySize=auto;html=1;entryX=0.004;entryY=0.504;entryDx=0;entryDy=0;entryPerimeter=0;" edge="1" parent="1" source="s4t_JF43oJ4bLATen3ak-17" target="GQt8E_W3v2VuGSWoqwXT-1">
          <mxGeometry relative="1" as="geometry" />
        </mxCell>
      </root>
    </mxGraphModel>
  </diagram>
  <diagram id="pmpJUdnCavUqRJPuRO70" name="IDEF3 #1">
    <mxGraphModel dx="1426" dy="785" grid="1" gridSize="10" guides="1" tooltips="1" connect="1" arrows="1" fold="1" page="1" pageScale="1" pageWidth="827" pageHeight="1169" math="0" shadow="0">
      <root>
        <mxCell id="0" />
        <mxCell id="1" parent="0" />
        <mxCell id="guqMuwW03guQs4RngXNy-6" value="" style="group" vertex="1" connectable="0" parent="1">
          <mxGeometry x="270" y="170" width="260" height="105" as="geometry" />
        </mxCell>
        <mxCell id="guqMuwW03guQs4RngXNy-1" value="" style="rounded=0;whiteSpace=wrap;html=1;" vertex="1" parent="guqMuwW03guQs4RngXNy-6">
          <mxGeometry width="260" height="100" as="geometry" />
        </mxCell>
        <mxCell id="guqMuwW03guQs4RngXNy-2" value="" style="rounded=0;whiteSpace=wrap;html=1;" vertex="1" parent="guqMuwW03guQs4RngXNy-6">
          <mxGeometry y="80" width="130" height="20" as="geometry" />
        </mxCell>
        <mxCell id="guqMuwW03guQs4RngXNy-3" value="" style="rounded=0;whiteSpace=wrap;html=1;" vertex="1" parent="guqMuwW03guQs4RngXNy-6">
          <mxGeometry x="130" y="80" width="130" height="20" as="geometry" />
        </mxCell>
        <mxCell id="guqMuwW03guQs4RngXNy-4" value="1" style="text;html=1;align=center;verticalAlign=middle;whiteSpace=wrap;rounded=0;" vertex="1" parent="guqMuwW03guQs4RngXNy-6">
          <mxGeometry y="80" width="40" height="20" as="geometry" />
        </mxCell>
        <mxCell id="guqMuwW03guQs4RngXNy-7" value="Авторизация заведующего кафедрой" style="text;html=1;align=center;verticalAlign=middle;whiteSpace=wrap;rounded=0;" vertex="1" parent="guqMuwW03guQs4RngXNy-6">
          <mxGeometry x="25" y="30" width="210" height="30" as="geometry" />
        </mxCell>
        <mxCell id="guqMuwW03guQs4RngXNy-8" value="" style="group" vertex="1" connectable="0" parent="1">
          <mxGeometry x="270" y="310" width="260" height="105" as="geometry" />
        </mxCell>
        <mxCell id="guqMuwW03guQs4RngXNy-9" value="" style="rounded=0;whiteSpace=wrap;html=1;" vertex="1" parent="guqMuwW03guQs4RngXNy-8">
          <mxGeometry width="260" height="100" as="geometry" />
        </mxCell>
        <mxCell id="guqMuwW03guQs4RngXNy-10" value="" style="rounded=0;whiteSpace=wrap;html=1;" vertex="1" parent="guqMuwW03guQs4RngXNy-8">
          <mxGeometry y="80" width="130" height="20" as="geometry" />
        </mxCell>
        <mxCell id="guqMuwW03guQs4RngXNy-11" value="" style="rounded=0;whiteSpace=wrap;html=1;" vertex="1" parent="guqMuwW03guQs4RngXNy-8">
          <mxGeometry x="130" y="80" width="130" height="20" as="geometry" />
        </mxCell>
        <mxCell id="guqMuwW03guQs4RngXNy-12" value="2" style="text;html=1;align=center;verticalAlign=middle;whiteSpace=wrap;rounded=0;" vertex="1" parent="guqMuwW03guQs4RngXNy-8">
          <mxGeometry y="80" width="40" height="20" as="geometry" />
        </mxCell>
        <mxCell id="guqMuwW03guQs4RngXNy-13" value="Загрузка доступных курсов, семестров и групп" style="text;html=1;align=center;verticalAlign=middle;whiteSpace=wrap;rounded=0;" vertex="1" parent="guqMuwW03guQs4RngXNy-8">
          <mxGeometry x="10" y="30" width="240" height="30" as="geometry" />
        </mxCell>
        <mxCell id="guqMuwW03guQs4RngXNy-14" style="edgeStyle=orthogonalEdgeStyle;rounded=0;orthogonalLoop=1;jettySize=auto;html=1;entryX=0.5;entryY=0;entryDx=0;entryDy=0;" edge="1" parent="1" source="guqMuwW03guQs4RngXNy-1" target="guqMuwW03guQs4RngXNy-9">
          <mxGeometry relative="1" as="geometry" />
        </mxCell>
        <mxCell id="guqMuwW03guQs4RngXNy-15" value="" style="group" vertex="1" connectable="0" parent="1">
          <mxGeometry x="270" y="450" width="260" height="105" as="geometry" />
        </mxCell>
        <mxCell id="guqMuwW03guQs4RngXNy-16" value="" style="rounded=0;whiteSpace=wrap;html=1;" vertex="1" parent="guqMuwW03guQs4RngXNy-15">
          <mxGeometry width="260" height="100" as="geometry" />
        </mxCell>
        <mxCell id="guqMuwW03guQs4RngXNy-17" value="" style="rounded=0;whiteSpace=wrap;html=1;" vertex="1" parent="guqMuwW03guQs4RngXNy-15">
          <mxGeometry y="80" width="130" height="20" as="geometry" />
        </mxCell>
        <mxCell id="guqMuwW03guQs4RngXNy-18" value="" style="rounded=0;whiteSpace=wrap;html=1;" vertex="1" parent="guqMuwW03guQs4RngXNy-15">
          <mxGeometry x="130" y="80" width="130" height="20" as="geometry" />
        </mxCell>
        <mxCell id="guqMuwW03guQs4RngXNy-19" value="3" style="text;html=1;align=center;verticalAlign=middle;whiteSpace=wrap;rounded=0;" vertex="1" parent="guqMuwW03guQs4RngXNy-15">
          <mxGeometry y="80" width="40" height="20" as="geometry" />
        </mxCell>
        <mxCell id="guqMuwW03guQs4RngXNy-20" value="Назначение преподавателя" style="text;html=1;align=center;verticalAlign=middle;whiteSpace=wrap;rounded=0;" vertex="1" parent="guqMuwW03guQs4RngXNy-15">
          <mxGeometry x="10" y="30" width="240" height="30" as="geometry" />
        </mxCell>
        <mxCell id="guqMuwW03guQs4RngXNy-21" style="edgeStyle=orthogonalEdgeStyle;rounded=0;orthogonalLoop=1;jettySize=auto;html=1;entryX=0.5;entryY=0;entryDx=0;entryDy=0;" edge="1" parent="1" source="guqMuwW03guQs4RngXNy-9" target="guqMuwW03guQs4RngXNy-16">
          <mxGeometry relative="1" as="geometry" />
        </mxCell>
        <mxCell id="guqMuwW03guQs4RngXNy-22" value="" style="group" vertex="1" connectable="0" parent="1">
          <mxGeometry x="270" y="584" width="260" height="105" as="geometry" />
        </mxCell>
        <mxCell id="guqMuwW03guQs4RngXNy-23" value="" style="rounded=0;whiteSpace=wrap;html=1;" vertex="1" parent="guqMuwW03guQs4RngXNy-22">
          <mxGeometry width="260" height="100" as="geometry" />
        </mxCell>
        <mxCell id="guqMuwW03guQs4RngXNy-24" value="" style="rounded=0;whiteSpace=wrap;html=1;" vertex="1" parent="guqMuwW03guQs4RngXNy-22">
          <mxGeometry y="80" width="130" height="20" as="geometry" />
        </mxCell>
        <mxCell id="guqMuwW03guQs4RngXNy-25" value="" style="rounded=0;whiteSpace=wrap;html=1;" vertex="1" parent="guqMuwW03guQs4RngXNy-22">
          <mxGeometry x="130" y="80" width="130" height="20" as="geometry" />
        </mxCell>
        <mxCell id="guqMuwW03guQs4RngXNy-26" value="4" style="text;html=1;align=center;verticalAlign=middle;whiteSpace=wrap;rounded=0;" vertex="1" parent="guqMuwW03guQs4RngXNy-22">
          <mxGeometry y="80" width="40" height="20" as="geometry" />
        </mxCell>
        <mxCell id="guqMuwW03guQs4RngXNy-27" value="Ввод количества часов" style="text;html=1;align=center;verticalAlign=middle;whiteSpace=wrap;rounded=0;" vertex="1" parent="guqMuwW03guQs4RngXNy-22">
          <mxGeometry x="10" y="30" width="240" height="30" as="geometry" />
        </mxCell>
        <mxCell id="guqMuwW03guQs4RngXNy-28" style="edgeStyle=orthogonalEdgeStyle;rounded=0;orthogonalLoop=1;jettySize=auto;html=1;entryX=0.5;entryY=0;entryDx=0;entryDy=0;" edge="1" parent="1" source="guqMuwW03guQs4RngXNy-16" target="guqMuwW03guQs4RngXNy-23">
          <mxGeometry relative="1" as="geometry" />
        </mxCell>
        <mxCell id="guqMuwW03guQs4RngXNy-32" value="" style="group" vertex="1" connectable="0" parent="1">
          <mxGeometry x="590" y="525" width="30" height="27.5" as="geometry" />
        </mxCell>
        <mxCell id="guqMuwW03guQs4RngXNy-30" value="X" style="rounded=0;whiteSpace=wrap;html=1;" vertex="1" parent="guqMuwW03guQs4RngXNy-32">
          <mxGeometry width="30" height="27.5" as="geometry" />
        </mxCell>
        <mxCell id="guqMuwW03guQs4RngXNy-31" value="" style="rounded=0;whiteSpace=wrap;html=1;" vertex="1" parent="guqMuwW03guQs4RngXNy-32">
          <mxGeometry width="7.5" height="27.5" as="geometry" />
        </mxCell>
        <mxCell id="guqMuwW03guQs4RngXNy-42" value="" style="group" vertex="1" connectable="0" parent="1">
          <mxGeometry x="680" y="430" width="260" height="105" as="geometry" />
        </mxCell>
        <mxCell id="guqMuwW03guQs4RngXNy-43" value="" style="rounded=0;whiteSpace=wrap;html=1;" vertex="1" parent="guqMuwW03guQs4RngXNy-42">
          <mxGeometry width="260" height="100" as="geometry" />
        </mxCell>
        <mxCell id="guqMuwW03guQs4RngXNy-44" value="" style="rounded=0;whiteSpace=wrap;html=1;" vertex="1" parent="guqMuwW03guQs4RngXNy-42">
          <mxGeometry y="80" width="130" height="20" as="geometry" />
        </mxCell>
        <mxCell id="guqMuwW03guQs4RngXNy-45" value="" style="rounded=0;whiteSpace=wrap;html=1;" vertex="1" parent="guqMuwW03guQs4RngXNy-42">
          <mxGeometry x="130" y="80" width="130" height="20" as="geometry" />
        </mxCell>
        <mxCell id="guqMuwW03guQs4RngXNy-46" value="6" style="text;html=1;align=center;verticalAlign=middle;whiteSpace=wrap;rounded=0;" vertex="1" parent="guqMuwW03guQs4RngXNy-42">
          <mxGeometry y="80" width="40" height="20" as="geometry" />
        </mxCell>
        <mxCell id="guqMuwW03guQs4RngXNy-47" value="Редактирование существующей записи" style="text;html=1;align=center;verticalAlign=middle;whiteSpace=wrap;rounded=0;" vertex="1" parent="guqMuwW03guQs4RngXNy-42">
          <mxGeometry x="10" y="30" width="240" height="30" as="geometry" />
        </mxCell>
        <mxCell id="guqMuwW03guQs4RngXNy-48" value="" style="group" vertex="1" connectable="0" parent="1">
          <mxGeometry x="680" y="545" width="260" height="105" as="geometry" />
        </mxCell>
        <mxCell id="guqMuwW03guQs4RngXNy-49" value="" style="rounded=0;whiteSpace=wrap;html=1;" vertex="1" parent="guqMuwW03guQs4RngXNy-48">
          <mxGeometry width="260" height="100" as="geometry" />
        </mxCell>
        <mxCell id="guqMuwW03guQs4RngXNy-50" value="" style="rounded=0;whiteSpace=wrap;html=1;" vertex="1" parent="guqMuwW03guQs4RngXNy-48">
          <mxGeometry y="80" width="130" height="20" as="geometry" />
        </mxCell>
        <mxCell id="guqMuwW03guQs4RngXNy-51" value="" style="rounded=0;whiteSpace=wrap;html=1;" vertex="1" parent="guqMuwW03guQs4RngXNy-48">
          <mxGeometry x="130" y="80" width="130" height="20" as="geometry" />
        </mxCell>
        <mxCell id="guqMuwW03guQs4RngXNy-52" value="5" style="text;html=1;align=center;verticalAlign=middle;whiteSpace=wrap;rounded=0;" vertex="1" parent="guqMuwW03guQs4RngXNy-48">
          <mxGeometry y="80" width="40" height="20" as="geometry" />
        </mxCell>
        <mxCell id="guqMuwW03guQs4RngXNy-53" value="Создание новой записи" style="text;html=1;align=center;verticalAlign=middle;whiteSpace=wrap;rounded=0;" vertex="1" parent="guqMuwW03guQs4RngXNy-48">
          <mxGeometry x="10" y="30" width="240" height="30" as="geometry" />
        </mxCell>
        <mxCell id="guqMuwW03guQs4RngXNy-54" style="edgeStyle=orthogonalEdgeStyle;rounded=0;orthogonalLoop=1;jettySize=auto;html=1;entryX=0;entryY=0.5;entryDx=0;entryDy=0;" edge="1" parent="1" source="guqMuwW03guQs4RngXNy-30" target="guqMuwW03guQs4RngXNy-43">
          <mxGeometry relative="1" as="geometry" />
        </mxCell>
        <mxCell id="guqMuwW03guQs4RngXNy-55" style="edgeStyle=orthogonalEdgeStyle;rounded=0;orthogonalLoop=1;jettySize=auto;html=1;entryX=0;entryY=0.5;entryDx=0;entryDy=0;" edge="1" parent="1" source="guqMuwW03guQs4RngXNy-30" target="guqMuwW03guQs4RngXNy-49">
          <mxGeometry relative="1" as="geometry" />
        </mxCell>
        <mxCell id="guqMuwW03guQs4RngXNy-56" value="" style="group" vertex="1" connectable="0" parent="1">
          <mxGeometry x="1010" y="485" width="260" height="105" as="geometry" />
        </mxCell>
        <mxCell id="guqMuwW03guQs4RngXNy-57" value="" style="rounded=0;whiteSpace=wrap;html=1;" vertex="1" parent="guqMuwW03guQs4RngXNy-56">
          <mxGeometry width="260" height="100" as="geometry" />
        </mxCell>
        <mxCell id="guqMuwW03guQs4RngXNy-58" value="" style="rounded=0;whiteSpace=wrap;html=1;" vertex="1" parent="guqMuwW03guQs4RngXNy-56">
          <mxGeometry y="80" width="130" height="20" as="geometry" />
        </mxCell>
        <mxCell id="guqMuwW03guQs4RngXNy-59" value="" style="rounded=0;whiteSpace=wrap;html=1;" vertex="1" parent="guqMuwW03guQs4RngXNy-56">
          <mxGeometry x="130" y="80" width="130" height="20" as="geometry" />
        </mxCell>
        <mxCell id="guqMuwW03guQs4RngXNy-60" value="7" style="text;html=1;align=center;verticalAlign=middle;whiteSpace=wrap;rounded=0;" vertex="1" parent="guqMuwW03guQs4RngXNy-56">
          <mxGeometry y="80" width="40" height="20" as="geometry" />
        </mxCell>
        <mxCell id="guqMuwW03guQs4RngXNy-61" value="Сохранение в базе данных" style="text;html=1;align=center;verticalAlign=middle;whiteSpace=wrap;rounded=0;" vertex="1" parent="guqMuwW03guQs4RngXNy-56">
          <mxGeometry x="10" y="30" width="240" height="30" as="geometry" />
        </mxCell>
        <mxCell id="guqMuwW03guQs4RngXNy-62" style="edgeStyle=orthogonalEdgeStyle;rounded=0;orthogonalLoop=1;jettySize=auto;html=1;entryX=0;entryY=0.5;entryDx=0;entryDy=0;" edge="1" parent="1" source="guqMuwW03guQs4RngXNy-43" target="guqMuwW03guQs4RngXNy-57">
          <mxGeometry relative="1" as="geometry" />
        </mxCell>
        <mxCell id="guqMuwW03guQs4RngXNy-63" style="edgeStyle=orthogonalEdgeStyle;rounded=0;orthogonalLoop=1;jettySize=auto;html=1;entryX=0;entryY=0.5;entryDx=0;entryDy=0;" edge="1" parent="1" source="guqMuwW03guQs4RngXNy-49" target="guqMuwW03guQs4RngXNy-57">
          <mxGeometry relative="1" as="geometry" />
        </mxCell>
        <mxCell id="guqMuwW03guQs4RngXNy-64" style="edgeStyle=orthogonalEdgeStyle;rounded=0;orthogonalLoop=1;jettySize=auto;html=1;entryX=0;entryY=0.5;entryDx=0;entryDy=0;" edge="1" parent="1" source="guqMuwW03guQs4RngXNy-23" target="guqMuwW03guQs4RngXNy-31">
          <mxGeometry relative="1" as="geometry" />
        </mxCell>
      </root>
    </mxGraphModel>
  </diagram>
  <diagram id="KhxNpMjlJEo8uN5pB0is" name="IDEF3 #2">
    <mxGraphModel dx="1240" dy="683" grid="1" gridSize="10" guides="1" tooltips="1" connect="1" arrows="1" fold="1" page="1" pageScale="1" pageWidth="827" pageHeight="1169" math="0" shadow="0">
      <root>
        <mxCell id="0" />
        <mxCell id="1" parent="0" />
        <mxCell id="NWy5aHcwGz8FKB5AaxOw-1" value="" style="group" vertex="1" connectable="0" parent="1">
          <mxGeometry x="270" y="130" width="260" height="105" as="geometry" />
        </mxCell>
        <mxCell id="NWy5aHcwGz8FKB5AaxOw-2" value="" style="rounded=0;whiteSpace=wrap;html=1;" vertex="1" parent="NWy5aHcwGz8FKB5AaxOw-1">
          <mxGeometry width="260" height="100" as="geometry" />
        </mxCell>
        <mxCell id="NWy5aHcwGz8FKB5AaxOw-3" value="" style="rounded=0;whiteSpace=wrap;html=1;" vertex="1" parent="NWy5aHcwGz8FKB5AaxOw-1">
          <mxGeometry y="80" width="130" height="20" as="geometry" />
        </mxCell>
        <mxCell id="NWy5aHcwGz8FKB5AaxOw-4" value="" style="rounded=0;whiteSpace=wrap;html=1;" vertex="1" parent="NWy5aHcwGz8FKB5AaxOw-1">
          <mxGeometry x="130" y="80" width="130" height="20" as="geometry" />
        </mxCell>
        <mxCell id="NWy5aHcwGz8FKB5AaxOw-5" value="5.1" style="text;html=1;align=center;verticalAlign=middle;whiteSpace=wrap;rounded=0;" vertex="1" parent="NWy5aHcwGz8FKB5AaxOw-1">
          <mxGeometry y="80" width="40" height="20" as="geometry" />
        </mxCell>
        <mxCell id="NWy5aHcwGz8FKB5AaxOw-6" value="Выбор преподавателя" style="text;html=1;align=center;verticalAlign=middle;whiteSpace=wrap;rounded=0;" vertex="1" parent="NWy5aHcwGz8FKB5AaxOw-1">
          <mxGeometry x="10" y="30" width="240" height="30" as="geometry" />
        </mxCell>
        <mxCell id="NWy5aHcwGz8FKB5AaxOw-7" value="" style="group" vertex="1" connectable="0" parent="1">
          <mxGeometry x="270" y="260" width="260" height="105" as="geometry" />
        </mxCell>
        <mxCell id="NWy5aHcwGz8FKB5AaxOw-8" value="" style="rounded=0;whiteSpace=wrap;html=1;" vertex="1" parent="NWy5aHcwGz8FKB5AaxOw-7">
          <mxGeometry width="260" height="100" as="geometry" />
        </mxCell>
        <mxCell id="NWy5aHcwGz8FKB5AaxOw-9" value="" style="rounded=0;whiteSpace=wrap;html=1;" vertex="1" parent="NWy5aHcwGz8FKB5AaxOw-7">
          <mxGeometry y="80" width="130" height="20" as="geometry" />
        </mxCell>
        <mxCell id="NWy5aHcwGz8FKB5AaxOw-10" value="" style="rounded=0;whiteSpace=wrap;html=1;" vertex="1" parent="NWy5aHcwGz8FKB5AaxOw-7">
          <mxGeometry x="130" y="80" width="130" height="20" as="geometry" />
        </mxCell>
        <mxCell id="NWy5aHcwGz8FKB5AaxOw-11" value="5.2" style="text;html=1;align=center;verticalAlign=middle;whiteSpace=wrap;rounded=0;" vertex="1" parent="NWy5aHcwGz8FKB5AaxOw-7">
          <mxGeometry y="80" width="40" height="20" as="geometry" />
        </mxCell>
        <mxCell id="NWy5aHcwGz8FKB5AaxOw-12" value="Выбор дисциплины и группы" style="text;html=1;align=center;verticalAlign=middle;whiteSpace=wrap;rounded=0;" vertex="1" parent="NWy5aHcwGz8FKB5AaxOw-7">
          <mxGeometry x="10" y="30" width="240" height="30" as="geometry" />
        </mxCell>
        <mxCell id="NWy5aHcwGz8FKB5AaxOw-13" value="" style="group" vertex="1" connectable="0" parent="1">
          <mxGeometry x="270" y="390" width="260" height="105" as="geometry" />
        </mxCell>
        <mxCell id="NWy5aHcwGz8FKB5AaxOw-14" value="" style="rounded=0;whiteSpace=wrap;html=1;" vertex="1" parent="NWy5aHcwGz8FKB5AaxOw-13">
          <mxGeometry width="260" height="100" as="geometry" />
        </mxCell>
        <mxCell id="NWy5aHcwGz8FKB5AaxOw-15" value="" style="rounded=0;whiteSpace=wrap;html=1;" vertex="1" parent="NWy5aHcwGz8FKB5AaxOw-13">
          <mxGeometry y="80" width="130" height="20" as="geometry" />
        </mxCell>
        <mxCell id="NWy5aHcwGz8FKB5AaxOw-16" value="" style="rounded=0;whiteSpace=wrap;html=1;" vertex="1" parent="NWy5aHcwGz8FKB5AaxOw-13">
          <mxGeometry x="130" y="80" width="130" height="20" as="geometry" />
        </mxCell>
        <mxCell id="NWy5aHcwGz8FKB5AaxOw-17" value="5.3" style="text;html=1;align=center;verticalAlign=middle;whiteSpace=wrap;rounded=0;" vertex="1" parent="NWy5aHcwGz8FKB5AaxOw-13">
          <mxGeometry y="80" width="40" height="20" as="geometry" />
        </mxCell>
        <mxCell id="NWy5aHcwGz8FKB5AaxOw-18" value="Указание объёма нагрузки" style="text;html=1;align=center;verticalAlign=middle;whiteSpace=wrap;rounded=0;" vertex="1" parent="NWy5aHcwGz8FKB5AaxOw-13">
          <mxGeometry x="10" y="30" width="240" height="30" as="geometry" />
        </mxCell>
        <mxCell id="NWy5aHcwGz8FKB5AaxOw-19" value="" style="group" vertex="1" connectable="0" parent="1">
          <mxGeometry x="270" y="520" width="260" height="105" as="geometry" />
        </mxCell>
        <mxCell id="NWy5aHcwGz8FKB5AaxOw-20" value="" style="rounded=0;whiteSpace=wrap;html=1;" vertex="1" parent="NWy5aHcwGz8FKB5AaxOw-19">
          <mxGeometry width="260" height="100" as="geometry" />
        </mxCell>
        <mxCell id="NWy5aHcwGz8FKB5AaxOw-21" value="" style="rounded=0;whiteSpace=wrap;html=1;" vertex="1" parent="NWy5aHcwGz8FKB5AaxOw-19">
          <mxGeometry y="80" width="130" height="20" as="geometry" />
        </mxCell>
        <mxCell id="NWy5aHcwGz8FKB5AaxOw-22" value="" style="rounded=0;whiteSpace=wrap;html=1;" vertex="1" parent="NWy5aHcwGz8FKB5AaxOw-19">
          <mxGeometry x="130" y="80" width="130" height="20" as="geometry" />
        </mxCell>
        <mxCell id="NWy5aHcwGz8FKB5AaxOw-23" value="5.4" style="text;html=1;align=center;verticalAlign=middle;whiteSpace=wrap;rounded=0;" vertex="1" parent="NWy5aHcwGz8FKB5AaxOw-19">
          <mxGeometry y="80" width="40" height="20" as="geometry" />
        </mxCell>
        <mxCell id="NWy5aHcwGz8FKB5AaxOw-24" value="Подтверждение и завершение" style="text;html=1;align=center;verticalAlign=middle;whiteSpace=wrap;rounded=0;" vertex="1" parent="NWy5aHcwGz8FKB5AaxOw-19">
          <mxGeometry x="10" y="30" width="240" height="30" as="geometry" />
        </mxCell>
        <mxCell id="NWy5aHcwGz8FKB5AaxOw-25" style="edgeStyle=orthogonalEdgeStyle;rounded=0;orthogonalLoop=1;jettySize=auto;html=1;entryX=0.5;entryY=0;entryDx=0;entryDy=0;" edge="1" parent="1" source="NWy5aHcwGz8FKB5AaxOw-2" target="NWy5aHcwGz8FKB5AaxOw-8">
          <mxGeometry relative="1" as="geometry" />
        </mxCell>
        <mxCell id="NWy5aHcwGz8FKB5AaxOw-26" style="edgeStyle=orthogonalEdgeStyle;rounded=0;orthogonalLoop=1;jettySize=auto;html=1;entryX=0.5;entryY=0;entryDx=0;entryDy=0;" edge="1" parent="1" source="NWy5aHcwGz8FKB5AaxOw-8" target="NWy5aHcwGz8FKB5AaxOw-14">
          <mxGeometry relative="1" as="geometry" />
        </mxCell>
        <mxCell id="NWy5aHcwGz8FKB5AaxOw-27" style="edgeStyle=orthogonalEdgeStyle;rounded=0;orthogonalLoop=1;jettySize=auto;html=1;entryX=0.5;entryY=0;entryDx=0;entryDy=0;" edge="1" parent="1" source="NWy5aHcwGz8FKB5AaxOw-14" target="NWy5aHcwGz8FKB5AaxOw-20">
          <mxGeometry relative="1" as="geometry" />
        </mxCell>
      </root>
    </mxGraphModel>
  </diagram>
  <diagram id="1xD9EIMzmtVoHbbRkY4N" name="Workflow">
    <mxGraphModel dx="1426" dy="785" grid="1" gridSize="10" guides="1" tooltips="1" connect="1" arrows="1" fold="1" page="1" pageScale="1" pageWidth="827" pageHeight="1169" math="0" shadow="0">
      <root>
        <mxCell id="0" />
        <mxCell id="1" parent="0" />
        <mxCell id="Jg9Ms_MKlD1KDzJZlwmi-5" style="edgeStyle=orthogonalEdgeStyle;rounded=0;orthogonalLoop=1;jettySize=auto;html=1;entryX=0.5;entryY=0;entryDx=0;entryDy=0;" edge="1" parent="1" source="Jg9Ms_MKlD1KDzJZlwmi-1" target="Jg9Ms_MKlD1KDzJZlwmi-4">
          <mxGeometry relative="1" as="geometry" />
        </mxCell>
        <mxCell id="Jg9Ms_MKlD1KDzJZlwmi-1" value="Авторизация заведующего кафедрой" style="rounded=0;whiteSpace=wrap;html=1;" vertex="1" parent="1">
          <mxGeometry x="234" y="370" width="120" height="60" as="geometry" />
        </mxCell>
        <mxCell id="Jg9Ms_MKlD1KDzJZlwmi-3" style="edgeStyle=orthogonalEdgeStyle;rounded=0;orthogonalLoop=1;jettySize=auto;html=1;entryX=0.5;entryY=0;entryDx=0;entryDy=0;" edge="1" parent="1" source="Jg9Ms_MKlD1KDzJZlwmi-2" target="Jg9Ms_MKlD1KDzJZlwmi-1">
          <mxGeometry relative="1" as="geometry" />
        </mxCell>
        <mxCell id="Jg9Ms_MKlD1KDzJZlwmi-2" value="Начало процесса" style="rounded=1;whiteSpace=wrap;html=1;arcSize=50;" vertex="1" parent="1">
          <mxGeometry x="234" y="290" width="120" height="60" as="geometry" />
        </mxCell>
        <mxCell id="Jg9Ms_MKlD1KDzJZlwmi-4" value="Загрузка доступных курсов, семестров и групп" style="rounded=0;whiteSpace=wrap;html=1;" vertex="1" parent="1">
          <mxGeometry x="234" y="450" width="120" height="60" as="geometry" />
        </mxCell>
        <mxCell id="Jg9Ms_MKlD1KDzJZlwmi-9" style="edgeStyle=orthogonalEdgeStyle;rounded=0;orthogonalLoop=1;jettySize=auto;html=1;entryX=0;entryY=0.5;entryDx=0;entryDy=0;" edge="1" parent="1" source="Jg9Ms_MKlD1KDzJZlwmi-6" target="Jg9Ms_MKlD1KDzJZlwmi-8">
          <mxGeometry relative="1" as="geometry" />
        </mxCell>
        <mxCell id="Jg9Ms_MKlD1KDzJZlwmi-12" style="edgeStyle=orthogonalEdgeStyle;rounded=0;orthogonalLoop=1;jettySize=auto;html=1;entryX=0.5;entryY=0;entryDx=0;entryDy=0;" edge="1" parent="1" source="Jg9Ms_MKlD1KDzJZlwmi-6" target="Jg9Ms_MKlD1KDzJZlwmi-11">
          <mxGeometry relative="1" as="geometry" />
        </mxCell>
        <mxCell id="Jg9Ms_MKlD1KDzJZlwmi-6" value="Есть доступные преподаватели?" style="rhombus;whiteSpace=wrap;html=1;" vertex="1" parent="1">
          <mxGeometry x="236" y="540" width="116" height="60" as="geometry" />
        </mxCell>
        <mxCell id="Jg9Ms_MKlD1KDzJZlwmi-7" style="edgeStyle=orthogonalEdgeStyle;rounded=0;orthogonalLoop=1;jettySize=auto;html=1;entryX=0.5;entryY=0;entryDx=0;entryDy=0;" edge="1" parent="1" source="Jg9Ms_MKlD1KDzJZlwmi-4" target="Jg9Ms_MKlD1KDzJZlwmi-6">
          <mxGeometry relative="1" as="geometry" />
        </mxCell>
        <mxCell id="Jg9Ms_MKlD1KDzJZlwmi-8" value="Вывести уведомление об ошибке и завершить процесс" style="rounded=0;whiteSpace=wrap;html=1;" vertex="1" parent="1">
          <mxGeometry x="400" y="540" width="120" height="60" as="geometry" />
        </mxCell>
        <mxCell id="Jg9Ms_MKlD1KDzJZlwmi-10" value="Нет" style="text;html=1;align=center;verticalAlign=middle;resizable=0;points=[];autosize=1;strokeColor=none;fillColor=none;" vertex="1" parent="1">
          <mxGeometry x="352" y="540" width="40" height="30" as="geometry" />
        </mxCell>
        <mxCell id="Jg9Ms_MKlD1KDzJZlwmi-14" style="edgeStyle=orthogonalEdgeStyle;rounded=0;orthogonalLoop=1;jettySize=auto;html=1;entryX=0.5;entryY=0;entryDx=0;entryDy=0;" edge="1" parent="1" source="Jg9Ms_MKlD1KDzJZlwmi-11" target="Jg9Ms_MKlD1KDzJZlwmi-13">
          <mxGeometry relative="1" as="geometry" />
        </mxCell>
        <mxCell id="Jg9Ms_MKlD1KDzJZlwmi-11" value="Выбор преподавателя и дисциплины" style="rounded=0;whiteSpace=wrap;html=1;" vertex="1" parent="1">
          <mxGeometry x="234" y="630" width="120" height="60" as="geometry" />
        </mxCell>
        <mxCell id="Jg9Ms_MKlD1KDzJZlwmi-16" style="edgeStyle=orthogonalEdgeStyle;rounded=0;orthogonalLoop=1;jettySize=auto;html=1;entryX=0.5;entryY=0;entryDx=0;entryDy=0;" edge="1" parent="1" source="Jg9Ms_MKlD1KDzJZlwmi-13" target="Jg9Ms_MKlD1KDzJZlwmi-15">
          <mxGeometry relative="1" as="geometry" />
        </mxCell>
        <mxCell id="Jg9Ms_MKlD1KDzJZlwmi-13" value="&lt;span data-end=&quot;485&quot; data-start=&quot;460&quot;&gt;Ввод количества часов&lt;/span&gt;" style="rounded=0;whiteSpace=wrap;html=1;" vertex="1" parent="1">
          <mxGeometry x="234" y="710" width="120" height="60" as="geometry" />
        </mxCell>
        <mxCell id="Jg9Ms_MKlD1KDzJZlwmi-20" style="edgeStyle=orthogonalEdgeStyle;rounded=0;orthogonalLoop=1;jettySize=auto;html=1;entryX=0;entryY=0.5;entryDx=0;entryDy=0;" edge="1" parent="1" source="Jg9Ms_MKlD1KDzJZlwmi-15" target="Jg9Ms_MKlD1KDzJZlwmi-19">
          <mxGeometry relative="1" as="geometry" />
        </mxCell>
        <mxCell id="Jg9Ms_MKlD1KDzJZlwmi-22" style="edgeStyle=orthogonalEdgeStyle;rounded=0;orthogonalLoop=1;jettySize=auto;html=1;entryX=0.5;entryY=0;entryDx=0;entryDy=0;" edge="1" parent="1" source="Jg9Ms_MKlD1KDzJZlwmi-15" target="Jg9Ms_MKlD1KDzJZlwmi-21">
          <mxGeometry relative="1" as="geometry" />
        </mxCell>
        <mxCell id="Jg9Ms_MKlD1KDzJZlwmi-15" value="Есть доступные преподаватели?" style="rhombus;whiteSpace=wrap;html=1;" vertex="1" parent="1">
          <mxGeometry x="236" y="790" width="116" height="60" as="geometry" />
        </mxCell>
        <mxCell id="Jg9Ms_MKlD1KDzJZlwmi-17" value="Нет" style="text;html=1;align=center;verticalAlign=middle;resizable=0;points=[];autosize=1;strokeColor=none;fillColor=none;" vertex="1" parent="1">
          <mxGeometry x="340" y="790" width="40" height="30" as="geometry" />
        </mxCell>
        <mxCell id="Jg9Ms_MKlD1KDzJZlwmi-18" value="Да" style="text;html=1;align=center;verticalAlign=middle;resizable=0;points=[];autosize=1;strokeColor=none;fillColor=none;" vertex="1" parent="1">
          <mxGeometry x="290" y="590" width="40" height="30" as="geometry" />
        </mxCell>
        <mxCell id="Jg9Ms_MKlD1KDzJZlwmi-19" value="&lt;span data-end=&quot;485&quot; data-start=&quot;460&quot;&gt;Создать новую запись&lt;/span&gt;" style="rounded=0;whiteSpace=wrap;html=1;" vertex="1" parent="1">
          <mxGeometry x="380" y="790" width="120" height="60" as="geometry" />
        </mxCell>
        <mxCell id="Jg9Ms_MKlD1KDzJZlwmi-24" style="edgeStyle=orthogonalEdgeStyle;rounded=0;orthogonalLoop=1;jettySize=auto;html=1;entryX=0.5;entryY=0;entryDx=0;entryDy=0;" edge="1" parent="1" source="Jg9Ms_MKlD1KDzJZlwmi-21" target="Jg9Ms_MKlD1KDzJZlwmi-23">
          <mxGeometry relative="1" as="geometry" />
        </mxCell>
        <mxCell id="Jg9Ms_MKlD1KDzJZlwmi-21" value="&lt;span data-end=&quot;485&quot; data-start=&quot;460&quot;&gt;Редактировать существующую запись&lt;/span&gt;" style="rounded=0;whiteSpace=wrap;html=1;" vertex="1" parent="1">
          <mxGeometry x="234" y="880" width="120" height="60" as="geometry" />
        </mxCell>
        <mxCell id="Jg9Ms_MKlD1KDzJZlwmi-27" style="edgeStyle=orthogonalEdgeStyle;rounded=0;orthogonalLoop=1;jettySize=auto;html=1;entryX=0.5;entryY=0;entryDx=0;entryDy=0;" edge="1" parent="1" source="Jg9Ms_MKlD1KDzJZlwmi-23" target="Jg9Ms_MKlD1KDzJZlwmi-25">
          <mxGeometry relative="1" as="geometry" />
        </mxCell>
        <mxCell id="Jg9Ms_MKlD1KDzJZlwmi-23" value="&lt;span data-end=&quot;485&quot; data-start=&quot;460&quot;&gt;Проверка валидности данных&lt;/span&gt;" style="rounded=0;whiteSpace=wrap;html=1;" vertex="1" parent="1">
          <mxGeometry x="234" y="960" width="120" height="60" as="geometry" />
        </mxCell>
        <mxCell id="Jg9Ms_MKlD1KDzJZlwmi-28" style="edgeStyle=orthogonalEdgeStyle;rounded=0;orthogonalLoop=1;jettySize=auto;html=1;entryX=0;entryY=0.5;entryDx=0;entryDy=0;" edge="1" parent="1" source="Jg9Ms_MKlD1KDzJZlwmi-25" target="Jg9Ms_MKlD1KDzJZlwmi-13">
          <mxGeometry relative="1" as="geometry">
            <Array as="points">
              <mxPoint x="190" y="1080" />
              <mxPoint x="190" y="740" />
            </Array>
          </mxGeometry>
        </mxCell>
        <mxCell id="Jg9Ms_MKlD1KDzJZlwmi-31" style="edgeStyle=orthogonalEdgeStyle;rounded=0;orthogonalLoop=1;jettySize=auto;html=1;entryX=0.5;entryY=0;entryDx=0;entryDy=0;" edge="1" parent="1" source="Jg9Ms_MKlD1KDzJZlwmi-25" target="Jg9Ms_MKlD1KDzJZlwmi-30">
          <mxGeometry relative="1" as="geometry" />
        </mxCell>
        <mxCell id="Jg9Ms_MKlD1KDzJZlwmi-25" value="Данные корректны?" style="rhombus;whiteSpace=wrap;html=1;" vertex="1" parent="1">
          <mxGeometry x="236" y="1050" width="116" height="60" as="geometry" />
        </mxCell>
        <mxCell id="Jg9Ms_MKlD1KDzJZlwmi-26" value="Да" style="text;html=1;align=center;verticalAlign=middle;resizable=0;points=[];autosize=1;strokeColor=none;fillColor=none;" vertex="1" parent="1">
          <mxGeometry x="290" y="840" width="40" height="30" as="geometry" />
        </mxCell>
        <mxCell id="Jg9Ms_MKlD1KDzJZlwmi-29" value="Нет" style="text;html=1;align=center;verticalAlign=middle;resizable=0;points=[];autosize=1;strokeColor=none;fillColor=none;" vertex="1" parent="1">
          <mxGeometry x="196" y="1050" width="40" height="30" as="geometry" />
        </mxCell>
        <mxCell id="Jg9Ms_MKlD1KDzJZlwmi-35" style="edgeStyle=orthogonalEdgeStyle;rounded=0;orthogonalLoop=1;jettySize=auto;html=1;entryX=0.5;entryY=0;entryDx=0;entryDy=0;" edge="1" parent="1" source="Jg9Ms_MKlD1KDzJZlwmi-30" target="Jg9Ms_MKlD1KDzJZlwmi-34">
          <mxGeometry relative="1" as="geometry" />
        </mxCell>
        <mxCell id="Jg9Ms_MKlD1KDzJZlwmi-30" value="&lt;span data-end=&quot;485&quot; data-start=&quot;460&quot;&gt;Сохранить запись в базе данных&lt;/span&gt;" style="rounded=0;whiteSpace=wrap;html=1;" vertex="1" parent="1">
          <mxGeometry x="234" y="1130" width="120" height="60" as="geometry" />
        </mxCell>
        <mxCell id="Jg9Ms_MKlD1KDzJZlwmi-32" value="Да" style="text;html=1;align=center;verticalAlign=middle;resizable=0;points=[];autosize=1;strokeColor=none;fillColor=none;" vertex="1" parent="1">
          <mxGeometry x="290" y="1100" width="40" height="30" as="geometry" />
        </mxCell>
        <mxCell id="Jg9Ms_MKlD1KDzJZlwmi-34" value="Конец процесса" style="rounded=1;whiteSpace=wrap;html=1;arcSize=50;" vertex="1" parent="1">
          <mxGeometry x="234" y="1210" width="120" height="60" as="geometry" />
        </mxCell>
      </root>
    </mxGraphModel>
  </diagram>
</mxfile>
